<?xml version="1.0" encoding="UTF-8"?>
<svg id="Layer_2" data-name="Layer 2" xmlns="http://www.w3.org/2000/svg" xmlns:xlink="http://www.w3.org/1999/xlink" viewBox="0 0 236.11 296">
  <defs>
    <style>
      .cls-1 {
        fill: url(#linear-gradient-2);
      }

      .cls-2 {
        fill: url(#radial-gradient-7);
      }

      .cls-3 {
        fill: url(#radial-gradient-8);
      }

      .cls-4 {
        fill: url(#radial-gradient-5);
      }

      .cls-5 {
        fill: url(#radial-gradient-4);
      }

      .cls-6 {
        fill: url(#radial-gradient-6);
      }

      .cls-7 {
        fill: url(#radial-gradient);
      }

      .cls-8 {
        fill: url(#radial-gradient-2);
      }

      .cls-9 {
        fill: url(#radial-gradient-3);
      }

      .cls-10 {
        fill: url(#linear-gradient-3);
      }

      .cls-11 {
        fill: url(#linear-gradient);
      }

      .cls-12 {
        fill: url(#linear-gradient-4);
      }

      .cls-13 {
        fill: url(#radial-gradient-9);
      }
    </style>
    <radialGradient id="radial-gradient" cx="61.04" cy="110.72" fx="61.04" fy="110.72" r="139.25" gradientUnits="userSpaceOnUse">
      <stop offset="0" stop-color="#4ba8de"/>
      <stop offset="1" stop-color="#2d338c"/>
    </radialGradient>
    <linearGradient id="linear-gradient" x1="-2456.94" y1="3206.12" x2="-2415.15" y2="3206.12" gradientTransform="translate(3485.41 1952.05) rotate(83.68) scale(.91 1)" gradientUnits="userSpaceOnUse">
      <stop offset="0" stop-color="#94ca63"/>
      <stop offset=".16" stop-color="#8fc763"/>
      <stop offset=".33" stop-color="#82c164"/>
      <stop offset=".51" stop-color="#6db566"/>
      <stop offset=".69" stop-color="#4fa669"/>
      <stop offset=".87" stop-color="#29926c"/>
      <stop offset="1" stop-color="#088170"/>
    </linearGradient>
    <linearGradient id="linear-gradient-2" x1="-582.07" y1="535.93" x2="-491.32" y2="611.68" gradientTransform="translate(858.24 -260.56) rotate(15.12)" xlink:href="#linear-gradient"/>
    <radialGradient id="radial-gradient-2" cx="409.09" cy="37.36" fx="409.09" fy="37.36" r="27.24" gradientTransform="translate(-401.94 204.27) rotate(-4.2)" xlink:href="#radial-gradient"/>
    <radialGradient id="radial-gradient-3" cx="492.34" cy="121.56" fx="492.34" fy="121.56" r="11.77" gradientTransform="translate(-401.94 204.27) rotate(-4.2)" xlink:href="#radial-gradient"/>
    <linearGradient id="linear-gradient-3" x1="460.12" y1="93.06" x2="502.14" y2="127.07" gradientTransform="translate(-401.94 204.27) rotate(-4.2)" xlink:href="#linear-gradient"/>
    <linearGradient id="linear-gradient-4" x1="402.15" y1="56.54" x2="425.69" y2="56.54" gradientTransform="translate(-401.94 204.27) rotate(-4.2)" xlink:href="#linear-gradient"/>
    <radialGradient id="radial-gradient-4" cx="450.62" cy="-22.14" fx="450.62" fy="-22.14" r="100.63" gradientTransform="translate(-401.94 204.27) rotate(-4.2)" xlink:href="#radial-gradient"/>
    <radialGradient id="radial-gradient-5" cx="11.4" cy="30.27" fx="11.4" fy="30.27" r="43.35" gradientTransform="translate(45.42 -3.66) rotate(52.59)" gradientUnits="userSpaceOnUse">
      <stop offset="0" stop-color="#faad18"/>
      <stop offset=".21" stop-color="#f9b01c"/>
      <stop offset=".45" stop-color="#f9b929"/>
      <stop offset=".69" stop-color="#f8c93f"/>
      <stop offset=".94" stop-color="#f7df5d"/>
      <stop offset="1" stop-color="#f7e666"/>
    </radialGradient>
    <radialGradient id="radial-gradient-6" cx="64.34" cy="7.87" fx="64.34" fy="7.87" r="37.51" gradientTransform="translate(26.46 -38.17) rotate(35.68)" xlink:href="#radial-gradient-5"/>
    <radialGradient id="radial-gradient-7" cx="108.1" cy="4.8" fx="108.1" fy="4.8" r="24.72" gradientTransform="translate(15.01 -41.65) rotate(22.59)" gradientUnits="userSpaceOnUse">
      <stop offset="0" stop-color="#faad18"/>
      <stop offset=".23" stop-color="#f9b624"/>
      <stop offset=".65" stop-color="#f8ce45"/>
      <stop offset="1" stop-color="#f7e666"/>
    </radialGradient>
    <radialGradient id="radial-gradient-8" cx="145.56" cy="18.61" fx="145.56" fy="18.61" r="18.42" gradientTransform="translate(13.42 -40.91) rotate(16.53)" gradientUnits="userSpaceOnUse">
      <stop offset="0" stop-color="#faad18"/>
      <stop offset=".23" stop-color="#f9b624"/>
      <stop offset=".65" stop-color="#f8ce45"/>
      <stop offset="1" stop-color="#f7e666"/>
    </radialGradient>
    <radialGradient id="radial-gradient-9" cx="172.63" cy="30.7" fx="172.63" fy="30.7" r="17.28" gradientTransform="translate(7.05 -23.64) rotate(7.97)" xlink:href="#radial-gradient-5"/>
  </defs>
  <g id="WTP_-_logomark" data-name="WTP - logomark">
    <g>
      <path class="cls-7" d="M236.09,169.81c.31,14.52-1.95,29.27-7,43.59-1.42,4.05-3.06,8.08-4.95,12.04-2.45,5.16-5.21,10.09-8.25,14.75-11.88,18.28-28.05,32.59-46.52,42.22-.16,.06-.34,.13-.53,.19,4.77-35.01-3.13-58.76-18.26-77.96-7.72-9.82-17.33-18.43-28.11-26.74-13.15-10.19-28.05-19.91-43.39-30.81-.66-.47-1.31-.93-1.97-1.42-.71-.5-1.42-1-2.14-1.52,0-.02-.02-.02-.02-.03-.02,0-.05-.02-.05-.03-5.08-3.05-9.61-6.95-13.33-11.56-.82-.98-1.6-2-2.32-3.05-.26-.37-.52-.74-.76-1.11-1.34-2.03-2.55-4.17-3.58-6.42-.32-.68-.63-1.37-.92-2.06-.81-1.92-1.48-3.9-2.06-5.93-.13-.5-.26-1-.39-1.5-.27-1.13-.52-2.29-.73-3.45-4.92-27.94,13.75-54.57,41.69-59.47,.56-.1,1.13-.19,1.69-.26,.06-.03,.13-.03,.21-.03,.18-.03,.35-.06,.53-.08h.05c21.1-2.92,43.15-.44,64.09,8.19,1.98,.81,3.97,1.68,5.93,2.61,2.32,1.1,4.58,2.26,6.8,3.48l.02,.02c39.9,21.94,63.38,63.13,64.27,106.33Z"/>
      <g>
        <path class="cls-11" d="M60.09,128.29c1.75-1.5,.09-7.83-.72-10.79-.81-2.95,1.8-5.42,2.46-8.1s-2.7-7.09-5.22-8.12c-2.51-1.03-4.17-3.02-3.84-4.36,.33-1.34-.52-4.72-1.47-4.62-.95,.1-.24-2.15-2.18,1.98-1.94,4.13-.35,11.66,.29,15.62,.67,4.16,.53,6.09,3.13,10.95,2.6,4.87,3.27,7.9,5.22,8.12,1.94,.22,2.32-.69,2.32-.69Z"/>
        <path class="cls-1" d="M233.94,176.25c-.15-.41-.37-.78-.64-1.1-.98-1.2-2.58-1.88-3.1-1.54l-.07-.02c-.15,7.86-1.05,8.17-1.31,8.68-.51,1.02-1.75,1.32-2.32,2.31-.63,1.05-.54,2.34-1.07,3.44-.03,.08-4.83,7.07-5.87,6-1.17-1.2-.73-3.24-2.19-4.32-.85-.61-1.68-.46-2.92,.56-16.71,13.71-18.75,23.26-18.75,23.34,0,.05,.83,3.81,3.76,1.36,1.24-1.03,3.02-3.17,7.71-11.76,2.51,4.41,5.15,2.97,6.92,.97,1.17-1.29,2.02-1.8,2.7-.31,.17,.39,1.08,2.44,1.19,3.42,.61,5.7-3.27,10.66-2.64,16.36,.36,3.2,1.59,3.27,2.25,3.31,1.98,.1,2.7,.66,2.07,3.87,1.09-1.34,3.36-4.15,4.15-6.44,.88-2.54,.37-5.22,.76-7.8,.59-4.03,4.66-14.76,4.7-10.83,.05,4.46-2.37,9-3.37,15.17-.02,.05,0,.09,.03,.09,.58,0,6.78-7.22,8.73-16.71,2.37-11.58-.03-26.1-.73-28.02Zm-20.48-55.69q-7.53-10.37-11.05-11.29-.19,.15-.83,2.03c-.34-.39-5.73-6.14-7.19-6.03-.61,.85-.03,1.58-1.39,2.1-.17,0-2.25-1.56-2.75-2.81-2.34-6.2-6.58-23.78-13.63-31.33-3.68-3.93-7.44-7.27-10.92-9.9l-.02-.02c-6.44-4.9-11.82-7.34-13.53-6.68,.05,.08,.08,.19,.14,.27,2.07,4.02,6.03,6.81,8.65,10.39,.08,.12,8.66,12,9.15,15.1-.08,.08-.22,.2-.32,.27-1.17-.42-1.8-1-3.63-2.68-.07,.1-.15,.25-.22,.36,3.02,5.98,6.68,11.63,9.31,17.8,.19,.42,1.8,4.02,3.75,2.15,1.51-1.44,3.92,.56,6.27,5.24-7.32,3.46,3.37,8.56,3.49,8.61,2.46,.8,4.85-1.17,7.31-.17,3.27,1.37,5.19,4.41,7.92,6.46-1.05-2.12-1.76-3.51-2.41-4.73,5.49,3.51,9.07,9.24,14.66,12.63,.02-.03,.9-2.71-2.76-7.78Zm-23.24,33.73c-.19-1.54,.31-3.08,.02-4.64-.2-1.07-.8-1.63-.8-1.63-.08-.09-.22-.17-.34-.19-1.49-.08-1.75,.88-2.14,3.87-.47,3.76-1.42,6.7-4.48,8.78-.92,.63-1.9,1.19-2.81,1.81-3.86,2.66-7.53,5.61-11.32,8.36-1.76,1.27-3.95,1.81-5.53,3.39-.08,.07-.19,.17-.25,.25-1.08,1.19-1.05,2.73-1.02,3.54,3.19-.25,4.39-.34,5.73-.81,1.66-.58,2.86-1.95,4.47-2.61,.98-.41,2.03-.58,2.98-1.05,.29-.14,.37-.19,.78-.42l13.54-11.36c2.05-2.19,2.19-3.46,2.19-3.7,.03-1.31-.86-2.34-1.03-3.59Zm24.17,19.31c-.03-.46-.07-1.14,.24-3,.47-3.03,2-5.85,1.78-9.02-.19-2.41-2.24-3.31-2.86-3.27-.37,.03-1.39,.15-1.93,2.32-.59,2.36,.05,4.78-.42,7.12-.34,1.64-1.07,2.25-1.56,2.66-.61,.51-1.34,3.54-1.34,3.56,0,.09,3.03,11.02,3.53,11.44,.03,.03,3.75,3.03,3.25-6.12-.1-1.92-.58-3.78-.68-5.7Zm6.93-40.5c-1.31,.22-2.64,1.37-1.61,5.58,.37,1.47,.85,2.97,1.22,3.78,.64,1.42,1.75,2.59,2.44,4.02,.83,1.75,1.19,3.68,2.05,5.42,.14,.25,.46,.88,.86,1.19,.73,.53,1.42-.17,2.05-2.05,.44-1.34-3.19-17.34-7.02-17.93Zm-26.05-7.71q-.95-1.32-8.66-5.42c3.12,7.81,4.09,10.37,5.48,14.39,.66,1.9,1.19,3.39,1.68,4.07,.41,.58,.81,.68,1.36,.36,.15-.08,2.8-2.56,2.93-2.85,1.49-3.34-2.75-10.48-2.78-10.54Zm16.31,25.92q-.19-1.17-7.93-5.49c-.17,3.81-.46,6.58-.98,11.53-.08,.93-.32,3.12-.12,4.51,.32,2.12,2.41,3.12,3.78,1.81,.78-.75,5.63-9.85,5.26-12.36Zm15.1,9.22c-.02-.05-.05-.12-.08-.17-.54-1.15-1.24-2.25-1.8-3.41-.83-1.66-1.24-3.51-2.27-5.09-.42-.63-1.14-1.7-3.05-1.49-.51,.12-.47,2.56,.41,4.54,.8,1.75,2.7,2.58,3.51,4.29,.88,1.83,.92,3.92,1.86,5.71,.03,.03,.07,.1,.08,.15q.15,.25,2.03,2.73c.27-2.93,.36-4.98,.36-4.98-.68-1.51-.93-2.05-1.05-2.29Zm-9.36-17.66c-.78-1.27-1.58-2.51-2.34-3.8q-1.78-3.05-1.92-3.22c-.24-.32-1.12-1.41-1.98-1.39-.86,.07-1.03,1.19-1.09,1.56-.27,2.02,.1,4.05,.03,6.07,.27,.22,.56,.46,.83,.68q.36-.32,.78-1.46c.08-.24,.36-.95,.88-.78q.37,.13,1.92,2.29c.27,.37,.61,.71,1,1,.7,.51,1.49,.85,2.19,1.34q.17-1.53-.31-2.29Zm6.12,26.41c-.49-.37-.95-.32-1.1-.32-.22,.03-.68,.1-1.22,.81-.9,1.19-1.46,2.56-2.27,3.78,.29,.61,1.03,2.22,1.78,3.9,4.64-.37,4.95-6.54,2.81-8.17Z"/>
      </g>
      <g>
        <g>
          <g>
            <path class="cls-8" d="M22.98,237.88c2.08,3.53,6.46,11.13,4.97,13.62,0,0-.09,1.2-2.21,1.6-.01,0-.01,0-.01,0-8.3-9.94-14.69-21.19-19.04-33.13-1.43-3.97-2.65-8-3.61-12.09,.19,.17,.43,.41,.78,.26,1.07-.44,3.37,3.63,3.5,5.45,.12,1.84,2.84,3.85,6.18,4.35,3.34,.5,8.98,5.08,9.23,8.74,.26,3.66-1.86,7.66,.22,11.19Z"/>
            <path class="cls-9" d="M117.48,292.72c-8.15,.5-16.4,.09-24.58-1.25-.06-.02-.11-.03-.17-.04-2.58-.62,.58-2.58,3.72-1.89,2.41,.53,6.51-2.08,9.47-.23,1.73,1.08,4.91-.05,5.8,1.08,.89,1.14,4.93,1.64,4.93,1.64l.84,.7Z"/>
          </g>
          <g>
            <path class="cls-10" d="M117.5,292.74s-6.53,3.71-10.58,3.21c-4.03-.49-5.16,.39-8.08-1-2.83-1.35-3.51-2.83-5.95-3.48-.06-.02-.11-.03-.17-.04-2.58-.62,.58-2.58,3.72-1.89,2.41,.53,6.51-2.08,9.47-.23,1.73,1.08,4.91-.05,5.8,1.08,.89,1.14,4.93,1.64,4.93,1.64l.84,.7,.02,.02Z"/>
            <path class="cls-12" d="M27.95,251.5s-.09,1.2-2.21,1.6c-.08,.02-.16,.02-.25,.04-2.36,.34-4.44-3.19-9.23-8.74-4.8-5.55-4.82-8.67-7.89-13.06-3.06-4.39-7.02-14.03-6.33-19.96,.47-3.95,.64-3.89,1.01-3.53,0,0,.01,0,.01,.02,.19,.17,.43,.41,.78,.26,1.07-.44,3.37,3.63,3.5,5.45,.12,1.84,2.84,3.85,6.18,4.35,3.34,.5,8.98,5.08,9.23,8.74,.26,3.66-1.86,7.66,.22,11.19,2.08,3.53,6.46,11.13,4.97,13.62Z"/>
          </g>
        </g>
        <path class="cls-5" d="M151.92,254.88c-.58,6.77-2.38,13.16-5.17,18.98-.24,.57-.53,1.14-.83,1.69-2.35,4.49-5.77,8.42-10,11.38h-.01c-.07,.06-.16,.12-.24,.17-3.8,2.58-8.23,4.37-13.08,5.15-.43,.07-.87,.13-1.33,.17-.17,.03-.34,.05-.49,.06-.51,.05-1,.07-1.51,.11-.59,.04-1.18,.09-1.78,.12l-.84-.7s-4.04-.49-4.93-1.64c-.88-1.13-4.07,0-5.8-1.08-2.96-1.85-7.06,.76-9.47,.23-3.14-.69-6.3,1.26-3.72,1.89,.06,.02,.11,.03,.17,.04-12.97-2.11-25.79-6.6-37.81-13.62-3.77-2.19-7.36-4.56-10.77-7.14-6.99-5.22-13.18-11.13-18.57-17.62,2.12-.4,2.21-1.6,2.21-1.6,1.49-2.49-2.89-10.1-4.97-13.62-2.08-3.54,.04-7.53-.22-11.19-.25-3.66-5.89-8.24-9.23-8.74-3.34-.5-6.06-2.52-6.18-4.35-.12-1.82-2.43-5.89-3.5-5.45-.35,.15-.59-.09-.78-.26,0-.01-.01-.02-.01-.02-2.93-12.2-3.79-24.92-2.45-37.57l.02-.2c.07-.55,.13-1.13,.2-1.71,0-.01,0-.04,.02-.08,1.48-9.89,7.87-18.98,17.83-23.63,14.34-6.71,31.02-1.84,39.1,10.79,0,.02,.01,.03,.03,.05,.24,.43,.49,.88,.77,1.3,.04,.06,.08,.13,.11,.19,9.55,15.45,34.74,29.45,61.6,43.31,.02,0,.05,.02,.07,.04,20.35,9.66,33.58,31.01,31.57,54.52Z"/>
      </g>
      <g>
        <ellipse class="cls-4" cx="26.42" cy="44.13" rx="21.15" ry="27.52" transform="translate(-24.69 38.3) rotate(-52.59)"/>
        <ellipse class="cls-6" cx="72.52" cy="22.02" rx="17.71" ry="23.21" transform="translate(.77 46.43) rotate(-35.68)"/>
        <ellipse class="cls-2" cx="111.76" cy="16.74" rx="13.34" ry="17.26" transform="translate(2.14 44.22) rotate(-22.59)"/>
        <ellipse class="cls-3" cx="147.49" cy="25.73" rx="10.83" ry="13.28" transform="translate(-1.22 43.03) rotate(-16.53)"/>
        <ellipse class="cls-13" cx="173.21" cy="38.78" rx="10.04" ry="12.22" transform="translate(-3.7 24.39) rotate(-7.97)"/>
      </g>
    </g>
  </g>
</svg>